<svg xmlns="http://www.w3.org/2000/svg" width="512" height="512" viewBox="0 0 512 512" version="1.1">
	<path d="M 248 9.307 C 242.655 10.992, 234.659 19.533, 233.061 25.264 C 231.476 30.948, 232.172 37.457, 234.947 42.896 C 237.038 46.995, 244.440 54, 246.680 54 C 247.745 54, 248 59.912, 248 84.545 L 248 115.091 250.455 117.545 C 253.702 120.793, 258.298 120.793, 261.545 117.545 L 264 115.091 264 84.545 C 264 57.495, 264.179 54, 265.565 54 C 268.289 54, 277.462 43.857, 278.784 39.384 C 281.276 30.949, 279.714 23.363, 274.145 16.856 C 267.701 9.327, 257.386 6.349, 248 9.307 M 250.455 26.455 C 248.907 28.002, 248 30.052, 248 32 C 248 33.948, 248.907 35.998, 250.455 37.545 C 255.415 42.506, 264 38.991, 264 32 C 264 27.889, 260.111 24, 256 24 C 254.052 24, 252.002 24.907, 250.455 26.455 M 152 49.307 C 146.655 50.992, 138.659 59.533, 137.061 65.264 C 132.829 80.440, 144.734 96, 160.577 96 C 166.347 96, 171.511 93.557, 176.750 88.349 C 179.637 85.479, 182 82.426, 182 81.565 C 182 80.261, 183.500 80, 191 80 L 200 80 200 101.545 C 200 123.088, 200 123.091, 202.455 125.545 C 205.702 128.793, 210.298 128.793, 213.545 125.545 L 216 123.091 216 96 L 216 68.909 213.545 66.455 C 211.164 64.073, 210.655 64, 196.545 64 C 185.164 64, 182 63.713, 182 62.680 C 182 60.083, 174.520 52.685, 169.556 50.374 C 164.083 47.826, 157.894 47.450, 152 49.307 M 344 49.307 C 340.093 50.539, 330 60.003, 330 62.435 C 330 63.783, 327.987 64, 315.455 64 C 301.345 64, 300.836 64.073, 298.455 66.455 L 296 68.909 296 96 L 296 123.091 298.455 125.545 C 301.702 128.793, 306.298 128.793, 309.545 125.545 C 312 123.091, 312 123.088, 312 101.545 L 312 80 320.879 80 L 329.757 80 331.014 83.034 C 332.858 87.485, 340.288 93.583, 345.451 94.883 C 355.090 97.310, 361.529 95.539, 368.534 88.534 C 377.944 79.124, 378.576 66.706, 370.145 56.856 C 363.701 49.327, 353.386 46.349, 344 49.307 M 154.455 66.455 C 149.494 71.415, 153.009 80, 160 80 C 161.948 80, 163.998 79.093, 165.545 77.545 C 167.093 75.998, 168 73.948, 168 72 C 168 70.052, 167.093 68.002, 165.545 66.455 C 163.998 64.907, 161.948 64, 160 64 C 158.052 64, 156.002 64.907, 154.455 66.455 M 346.455 66.455 C 341.494 71.415, 345.009 80, 352 80 C 356.111 80, 360 76.111, 360 72 C 360 67.889, 356.111 64, 352 64 C 350.052 64, 348.002 64.907, 346.455 66.455 M 236 129.651 C 218.523 132.326, 199.676 139.808, 184 150.293 C 174.364 156.739, 156.739 174.364, 150.293 184 C 120.760 228.153, 120.760 283.847, 150.293 328 C 156.739 337.636, 174.364 355.261, 184 361.707 C 217.936 384.406, 258.420 389.859, 297.223 376.957 C 328.145 366.675, 355.756 342.418, 370.907 312.223 C 381.691 290.730, 386.144 262.390, 382.570 238 C 378.529 210.419, 366.993 187.207, 347.171 166.767 C 318.292 136.991, 277.349 123.321, 236 129.651 M 64 137.307 C 58.655 138.992, 50.659 147.533, 49.061 153.264 C 47.476 158.948, 48.172 165.457, 50.947 170.896 C 53.038 174.995, 60.440 182, 62.680 182 C 63.713 182, 64 185.164, 64 196.545 C 64 210.655, 64.073 211.164, 66.455 213.545 L 68.909 216 96 216 L 123.091 216 125.545 213.545 C 128.793 210.298, 128.793 205.702, 125.545 202.455 C 123.091 200, 123.088 200, 101.545 200 L 80 200 80 191 C 80 183.500, 80.261 182, 81.565 182 C 84.289 182, 93.462 171.857, 94.784 167.384 C 97.276 158.949, 95.714 151.363, 90.145 144.856 C 83.701 137.327, 73.386 134.349, 64 137.307 M 432 137.307 C 426.655 138.992, 418.659 147.533, 417.061 153.264 C 415.476 158.948, 416.172 165.457, 418.947 170.896 C 421.038 174.995, 428.440 182, 430.680 182 C 431.676 182, 432 184.212, 432 191 L 432 200 410.455 200 C 388.912 200, 388.909 200, 386.455 202.455 C 384.907 204.002, 384 206.052, 384 208 C 384 209.948, 384.907 211.998, 386.455 213.545 L 388.909 216 416 216 L 443.091 216 445.545 213.545 C 447.927 211.164, 448 210.655, 448 196.545 C 448 184.013, 448.217 182, 449.565 182 C 452.289 182, 461.462 171.857, 462.784 167.384 C 465.276 158.949, 463.714 151.363, 458.145 144.856 C 451.701 137.327, 441.386 134.349, 432 137.307 M 242.699 147.592 C 236.075 151.039, 227.436 160.166, 221.602 169.881 C 218.908 174.366, 216.929 178.263, 217.206 178.539 C 218.096 179.429, 236.318 183.778, 242.250 184.516 L 248 185.230 248 165.115 C 248 154.052, 247.887 145.021, 247.750 145.047 C 247.613 145.072, 245.340 146.217, 242.699 147.592 M 264 165.098 L 264 185.230 269.750 184.516 C 275.682 183.778, 293.904 179.429, 294.794 178.539 C 295.071 178.263, 293.092 174.366, 290.398 169.881 C 284.453 159.981, 275.846 150.969, 269.046 147.523 L 264 144.966 264 165.098 M 66.455 154.455 C 64.907 156.002, 64 158.052, 64 160 C 64 161.948, 64.907 163.998, 66.455 165.545 C 68.002 167.093, 70.052 168, 72 168 C 73.948 168, 75.998 167.093, 77.545 165.545 C 79.093 163.998, 80 161.948, 80 160 C 80 158.052, 79.093 156.002, 77.545 154.455 C 75.998 152.907, 73.948 152, 72 152 C 70.052 152, 68.002 152.907, 66.455 154.455 M 204.077 157.040 C 194.492 162.128, 192 163.746, 192 164.880 C 192 165.642, 200.712 171, 201.950 171 C 202.428 171, 204.661 167.738, 206.912 163.750 C 209.163 159.762, 211.733 155.488, 212.624 154.250 C 213.515 153.012, 214.077 152.009, 213.872 152.019 C 213.667 152.030, 209.260 154.289, 204.077 157.040 M 299.302 154.139 C 300.233 155.437, 302.837 159.762, 305.088 163.750 C 307.339 167.738, 309.572 171, 310.050 171 C 311.391 171, 320 165.610, 320 164.770 C 320 163.754, 313.884 159.974, 305.001 155.500 C 298.265 152.108, 297.759 151.987, 299.302 154.139 M 434.455 154.455 C 429.494 159.415, 433.009 168, 440 168 C 444.111 168, 448 164.111, 448 160 C 448 155.889, 444.111 152, 440 152 C 438.052 152, 436.002 152.907, 434.455 154.455 M 174.138 179.466 C 160.248 194.535, 149.164 216.459, 146.062 235 C 145.464 238.575, 144.735 242.963, 144.442 244.750 L 143.909 248 164.802 248 L 185.694 248 186.321 237.250 C 187.060 224.580, 189.932 208.012, 193.533 195.640 C 194.952 190.766, 195.975 186.679, 195.806 186.556 C 195.638 186.434, 191.592 183.813, 186.817 180.732 L 178.133 175.132 174.138 179.466 M 326 180.154 C 321.875 182.912, 317.916 185.498, 317.202 185.901 C 316.177 186.479, 316.548 188.929, 318.954 197.500 C 322.392 209.742, 325.986 232.335, 325.995 241.750 L 326 248 346.975 248 L 367.950 248 367.518 245.250 C 365.645 233.329, 364.399 227.523, 362.363 221.236 C 357.795 207.129, 348.671 191.501, 338.767 180.820 L 333.500 175.140 326 180.154 M 209.107 199.859 C 205.171 213.521, 202.016 232.357, 202.006 242.250 L 202 248 225 248 L 248 248 248 224.500 L 248 201 245.631 201 C 241.147 201, 226.084 198.003, 218.559 195.613 L 211.020 193.219 209.107 199.859 M 293.125 195.695 C 285.725 198.041, 270.801 201, 266.369 201 L 264 201 264 224.500 L 264 248 287 248 L 310 248 310 242.378 C 310 231.857, 303.943 198.963, 301.177 194.459 C 300.706 193.693, 298.255 194.069, 293.125 195.695 M 24 233.307 C 18.655 234.992, 10.659 243.533, 9.061 249.264 C 4.829 264.440, 16.734 280, 32.577 280 C 38.347 280, 43.511 277.557, 48.750 272.349 C 51.638 269.479, 54 266.426, 54 265.565 C 54 264.179, 57.495 264, 84.545 264 L 115.091 264 117.545 261.545 C 120.793 258.298, 120.793 253.702, 117.545 250.455 L 115.091 248 84.545 248 C 59.912 248, 54 247.745, 54 246.680 C 54 244.083, 46.520 236.685, 41.556 234.374 C 36.083 231.826, 29.894 231.450, 24 233.307 M 472 233.307 C 468.093 234.539, 458 244.003, 458 246.435 C 458 247.821, 454.505 248, 427.455 248 L 396.909 248 394.455 250.455 C 392.907 252.002, 392 254.052, 392 256 C 392 257.948, 392.907 259.998, 394.455 261.545 L 396.909 264 427.333 264 L 457.757 264 459.014 267.034 C 460.858 271.485, 468.288 277.583, 473.451 278.883 C 483.090 281.310, 489.529 279.539, 496.534 272.534 C 505.944 263.124, 506.576 250.706, 498.145 240.856 C 491.701 233.327, 481.386 230.349, 472 233.307 M 26.455 250.455 C 21.494 255.415, 25.009 264, 32 264 C 36.111 264, 40 260.111, 40 256 C 40 251.889, 36.111 248, 32 248 C 30.052 248, 28.002 248.907, 26.455 250.455 M 474.455 250.455 C 472.907 252.002, 472 254.052, 472 256 C 472 257.948, 472.907 259.998, 474.455 261.545 C 476.002 263.093, 478.052 264, 480 264 C 481.948 264, 483.998 263.093, 485.545 261.545 C 490.506 256.585, 486.991 248, 480 248 C 478.052 248, 476.002 248.907, 474.455 250.455 M 144.606 268.250 C 148.442 294.157, 158.059 315.090, 174.138 332.534 L 178.133 336.868 186.817 331.268 C 191.592 328.187, 195.638 325.566, 195.806 325.444 C 195.975 325.321, 194.952 321.234, 193.533 316.360 C 189.932 303.988, 187.060 287.420, 186.321 274.750 L 185.694 264 164.835 264 L 143.976 264 144.606 268.250 M 202 269.622 C 202 279.793, 206.074 302.980, 210.084 315.632 L 211.077 318.763 218.587 316.378 C 226.089 313.996, 241.154 311, 245.631 311 L 248 311 248 287.500 L 248 264 225 264 L 202 264 202 269.622 M 264 287.500 L 264 311 266.369 311 C 270.846 311, 285.911 313.996, 293.413 316.378 L 300.923 318.763 301.916 315.632 C 305.926 302.980, 310 279.793, 310 269.622 L 310 264 287 264 L 264 264 264 287.500 M 325.995 270.250 C 325.987 281.993, 322.069 303.890, 316.468 323.504 C 316.033 325.025, 316.690 325.962, 319.198 327.400 C 321.014 328.440, 325.062 331.012, 328.193 333.115 L 333.886 336.937 339.301 330.719 C 349.757 318.712, 357.836 304.691, 362.459 290.530 C 364.625 283.894, 365.438 280.180, 367.558 267.250 L 368.091 264 347.045 264 L 326 264 325.995 270.250 M 66.455 298.455 C 64.073 300.836, 64 301.345, 64 315.455 C 64 327.987, 63.783 330, 62.435 330 C 61.574 330, 58.512 332.363, 55.629 335.250 C 51.863 339.024, 50.016 341.840, 49.061 345.264 C 44.829 360.440, 56.734 376, 72.577 376 C 84.387 376, 96 364.101, 96 352 C 96 343.905, 89.756 333.798, 83.034 331.014 L 80 329.757 80 320.879 L 80 312 101.545 312 C 123.088 312, 123.091 312, 125.545 309.545 C 128.793 306.298, 128.793 301.702, 125.545 298.455 L 123.091 296 96 296 L 68.909 296 66.455 298.455 M 386.455 298.455 C 384.907 300.002, 384 302.052, 384 304 C 384 305.948, 384.907 307.998, 386.455 309.545 C 388.909 312, 388.912 312, 410.455 312 L 432 312 432 321 C 432 328.500, 431.739 330, 430.435 330 C 429.574 330, 426.512 332.363, 423.629 335.250 C 419.863 339.024, 418.016 341.840, 417.061 345.264 C 412.829 360.440, 424.734 376, 440.577 376 C 452.387 376, 464 364.101, 464 352 C 464 343.905, 457.756 333.798, 451.034 331.014 L 448 329.757 448 315.333 C 448 301.352, 447.925 300.834, 445.545 298.455 L 443.091 296 416 296 L 388.909 296 386.455 298.455 M 238 328 C 231.099 329.173, 217 333.135, 217 333.901 C 217 334.277, 219.294 338.312, 222.099 342.869 C 228.200 352.783, 236.188 361.048, 243.010 364.505 L 248 367.034 248 347.017 L 248 327 245.250 327.118 C 243.738 327.182, 240.475 327.579, 238 328 M 264 346.902 L 264 367.034 269.046 364.477 C 275.911 360.998, 284.509 351.962, 290.355 342.082 C 293.025 337.569, 295.025 333.692, 294.800 333.466 C 293.919 332.586, 275.188 328.083, 269.750 327.445 L 264 326.770 264 346.902 M 197.500 343.113 C 195.850 344.195, 193.825 345.512, 193 346.040 C 190.848 347.417, 194.374 350.161, 205.443 355.721 C 213.216 359.626, 214.165 359.905, 212.695 357.857 C 211.765 356.561, 209.163 352.238, 206.912 348.250 C 204.661 344.262, 202.297 341.033, 201.660 341.073 C 201.022 341.113, 199.150 342.031, 197.500 343.113 M 305.088 348.250 C 302.837 352.238, 300.234 356.561, 299.304 357.859 C 297.810 359.940, 298.604 359.720, 306.056 355.984 C 314.924 351.538, 320 348.331, 320 347.175 C 320 346.374, 311.340 341, 310.050 341 C 309.572 341, 307.339 344.262, 305.088 348.250 M 66.455 346.455 C 61.494 351.415, 65.009 360, 72 360 C 76.111 360, 80 356.111, 80 352 C 80 347.889, 76.111 344, 72 344 C 70.052 344, 68.002 344.907, 66.455 346.455 M 434.455 346.455 C 432.907 348.002, 432 350.052, 432 352 C 432 353.948, 432.907 355.998, 434.455 357.545 C 436.002 359.093, 438.052 360, 440 360 C 441.948 360, 443.998 359.093, 445.545 357.545 C 447.093 355.998, 448 353.948, 448 352 C 448 350.052, 447.093 348.002, 445.545 346.455 C 443.998 344.907, 441.948 344, 440 344 C 438.052 344, 436.002 344.907, 434.455 346.455 M 202.455 386.455 C 200 388.909, 200 388.912, 200 410.455 L 200 432 191 432 C 184.212 432, 182 431.676, 182 430.680 C 182 428.083, 174.520 420.685, 169.556 418.374 C 160.105 413.973, 151.242 415.702, 143.445 423.466 C 133.092 433.775, 133.767 448.653, 145.024 458.289 C 151.167 463.547, 159.280 465.178, 167.384 462.784 C 171.857 461.462, 182 452.289, 182 449.565 C 182 448.217, 184.013 448, 196.545 448 C 210.655 448, 211.164 447.927, 213.545 445.545 L 216 443.091 216 416 L 216 388.909 213.545 386.455 C 211.998 384.907, 209.948 384, 208 384 C 206.052 384, 204.002 384.907, 202.455 386.455 M 298.455 386.455 L 296 388.909 296 416 L 296 443.091 298.455 445.545 C 300.834 447.925, 301.352 448, 315.333 448 L 329.757 448 331.014 451.034 C 333.829 457.830, 344.090 464, 352.577 464 C 364.387 464, 376 452.101, 376 440 C 376 431.141, 370.143 422.373, 361.556 418.374 C 352.020 413.933, 343.257 415.691, 335.250 423.651 C 332.363 426.521, 330 429.574, 330 430.435 C 330 431.739, 328.500 432, 321 432 L 312 432 312 410.455 C 312 388.912, 312 388.909, 309.545 386.455 C 307.998 384.907, 305.948 384, 304 384 C 302.052 384, 300.002 384.907, 298.455 386.455 M 250.455 394.455 L 248 396.909 248 427.455 C 248 454.505, 247.821 458, 246.435 458 C 245.574 458, 242.512 460.363, 239.629 463.250 C 235.863 467.024, 234.016 469.840, 233.061 473.264 C 228.829 488.440, 240.734 504, 256.577 504 C 268.387 504, 280 492.101, 280 480 C 280 471.905, 273.756 461.798, 267.034 459.014 L 264 457.757 264 427.333 L 264 396.909 261.545 394.455 C 259.998 392.907, 257.948 392, 256 392 C 254.052 392, 252.002 392.907, 250.455 394.455 M 154.455 434.455 C 149.494 439.415, 153.009 448, 160 448 C 164.111 448, 168 444.111, 168 440 C 168 435.889, 164.111 432, 160 432 C 158.052 432, 156.002 432.907, 154.455 434.455 M 346.455 434.455 C 344.907 436.002, 344 438.052, 344 440 C 344 441.948, 344.907 443.998, 346.455 445.545 C 348.002 447.093, 350.052 448, 352 448 C 353.948 448, 355.998 447.093, 357.545 445.545 C 359.093 443.998, 360 441.948, 360 440 C 360 438.052, 359.093 436.002, 357.545 434.455 C 355.998 432.907, 353.948 432, 352 432 C 350.052 432, 348.002 432.907, 346.455 434.455 M 250.455 474.455 C 245.494 479.415, 249.009 488, 256 488 C 257.948 488, 259.998 487.093, 261.545 485.545 C 263.093 483.998, 264 481.948, 264 480 C 264 478.052, 263.093 476.002, 261.545 474.455 C 259.998 472.907, 257.948 472, 256 472 C 254.052 472, 252.002 472.907, 250.455 474.455" stroke="none" fill="#000000" fill-rule="evenodd"/>
</svg>