<svg xmlns="http://www.w3.org/2000/svg" width="512" height="512" viewBox="0 0 512 512" version="1.1">
	<path d="M 224.500 0.674 C 148.133 4.444, 84.799 19.119, 54.500 40.065 C 45.148 46.530, 37.492 54.756, 34.086 62 L 31.500 67.500 31.500 256 L 31.500 444.500 34.086 450 C 48.129 479.865, 107.320 501.425, 197.500 509.522 C 206.850 510.362, 226.875 511.322, 242 511.656 C 328.957 513.577, 412.196 499.213, 452.222 475.378 C 463.091 468.906, 474.130 458.101, 477.734 450.406 L 480.500 444.500 480.500 256 L 480.500 67.500 477.914 62 C 462.643 29.524, 392.771 6.480, 293 1.015 C 276.275 0.098, 239.834 -0.083, 224.500 0.674 M 223.500 30.663 C 165.388 33.420, 111.980 44.080, 81.206 59.066 C 69.718 64.660, 61 71.966, 61 76 C 61 79.757, 69.385 87.001, 79.394 91.891 C 106.181 104.978, 148.662 114.352, 203 119.168 C 222.024 120.854, 288.630 120.853, 308.500 119.166 C 353.751 115.325, 394.756 107.438, 418.500 98.008 C 436.935 90.687, 451 81.151, 451 75.972 C 451 72.748, 442.271 64.994, 433.414 60.351 C 397.235 41.387, 326.180 29.568, 252.074 30.189 C 239.658 30.293, 226.800 30.506, 223.500 30.663 M 61 127.233 L 61 138.343 65.309 142.471 C 81.829 158.301, 135.854 173.279, 193.500 178.013 C 213.917 179.690, 212.253 178.929, 211.600 186.288 C 211.298 189.705, 210.782 196.334, 210.454 201.020 L 209.859 209.539 205.679 209.236 C 149.255 205.136, 101.111 195.010, 71.250 180.962 L 61 176.139 61 187.253 L 61 198.368 65.772 202.968 C 79.495 216.194, 123.200 229.627, 173 235.923 C 203.273 239.751, 216.714 240.471, 257 240.424 C 298.393 240.377, 317.512 239.208, 347.406 234.900 C 392.377 228.418, 433.544 215.103, 446.237 202.934 L 451 198.368 451 157.217 L 451 116.067 441.750 120.571 C 414.951 133.622, 369.174 143.773, 315 148.679 C 288.160 151.109, 224.488 151.102, 198 148.666 C 140.107 143.342, 99.833 134.547, 71.250 120.986 L 61 116.123 61 127.233 M 241 196 L 241 211 256 211 L 271 211 271 196 L 271 181 256 181 L 241 181 241 196 M 61 247.233 L 61 258.343 65.309 262.471 C 81.829 278.301, 135.854 293.279, 193.500 298.013 C 213.917 299.690, 212.253 298.929, 211.600 306.288 C 211.298 309.705, 210.782 316.334, 210.454 321.020 L 209.859 329.539 205.679 329.236 C 149.255 325.136, 101.111 315.010, 71.250 300.962 L 61 296.139 61 307.253 L 61 318.368 65.772 322.968 C 79.495 336.194, 123.200 349.627, 173 355.923 C 203.273 359.751, 216.714 360.471, 257 360.424 C 298.393 360.377, 317.512 359.208, 347.406 354.900 C 392.377 348.418, 433.544 335.103, 446.237 322.934 L 451 318.368 451 277.171 L 451 235.975 443.835 239.583 C 388.142 267.630, 267.335 278.565, 164 264.914 C 125.473 259.825, 93.655 251.616, 71.250 240.986 L 61 236.123 61 247.233 M 241 316 L 241 331 256 331 L 271 331 271 316 L 271 301 256 301 L 241 301 241 316 M 61 367.078 L 61 378.034 65.637 382.477 C 78.873 395.159, 115.727 407.553, 159.414 414.014 C 176.250 416.503, 198.888 418.996, 204.845 419.015 C 212.152 419.039, 212.079 418.867, 211.006 433.545 C 210.485 440.670, 210.045 447.187, 210.029 448.026 C 209.996 449.761, 210.308 449.769, 185.500 447.412 C 139.406 443.032, 97.577 433.348, 71.250 420.962 L 61 416.139 61 427.253 L 61 438.368 65.956 443.145 C 71.843 448.819, 86.542 456.244, 102 461.351 C 159.881 480.476, 248.527 486.963, 329.011 477.963 C 384.508 471.758, 430.548 457.945, 446.164 442.815 L 451 438.130 451 397.052 L 451 355.975 443.835 359.583 C 415.808 373.697, 373.379 383.204, 314 388.674 C 288.029 391.066, 223.909 391.063, 198 388.668 C 139.952 383.301, 99.365 374.448, 71.250 361.019 L 61 356.123 61 367.078 M 241 436 L 241 451 256 451 L 271 451 271 436 L 271 421 256 421 L 241 421 241 436" stroke="none" fill="#000000" fill-rule="evenodd"/>
</svg>