<svg xmlns="http://www.w3.org/2000/svg" width="512" height="512" viewBox="0 0 512 512" version="1.1">
	<path d="M 247 8.624 C 225.984 12.695, 209.293 27.424, 202.378 48 C 199.811 55.639, 199.815 72.385, 202.387 80 C 208.739 98.808, 223.469 113.124, 241.158 117.680 L 248 119.443 248 135.721 L 248 152 208 152 L 168 152 168 177.498 L 168 202.997 127.690 182.849 L 87.380 162.701 87.440 152.552 C 87.498 142.792, 87.357 142.114, 83.765 134.843 C 79.267 125.738, 73.479 120.070, 64.180 115.665 C 58.139 112.803, 56.591 112.500, 48 112.500 C 39.409 112.500, 37.861 112.803, 31.820 115.665 C 22.523 120.069, 16.733 125.738, 12.235 134.840 C 8.706 141.980, 8.500 142.925, 8.500 152 C 8.500 161.075, 8.706 162.020, 12.235 169.160 C 16.733 178.262, 22.523 183.931, 31.820 188.335 C 37.861 191.197, 39.409 191.500, 48 191.500 C 56.571 191.500, 58.136 191.196, 64 188.390 C 67.575 186.679, 72.611 183.402, 75.190 181.107 L 79.880 176.936 123.940 198.970 L 168 221.004 168 255.999 L 168 290.993 139.194 305.403 L 110.388 319.812 104.328 313.527 C 74.433 282.519, 24.407 294.486, 10.387 336 C 7.810 343.631, 7.810 360.369, 10.387 368 C 16.661 386.579, 29.477 399.397, 48 405.622 C 55.639 408.189, 72.385 408.185, 80 405.613 C 89.297 402.473, 96.988 397.852, 103.117 391.723 C 114.556 380.284, 120.793 364.024, 119.697 348.498 C 119.386 344.085, 118.639 339.180, 118.037 337.598 C 117.436 336.017, 117.069 334.610, 117.222 334.473 C 117.375 334.335, 128.863 328.546, 142.750 321.608 L 168 308.992 168 334.496 L 168 360 208 360 L 248 360 248 392.500 C 248 419.301, 247.761 425, 246.634 425 C 245.883 425, 242.111 426.580, 238.252 428.510 C 229.726 432.776, 223.949 438.777, 219.665 447.820 C 216.799 453.869, 216.500 455.402, 216.500 464.052 C 216.500 473.084, 216.705 474.019, 220.272 481.237 C 224.727 490.251, 230.477 495.833, 240 500.390 C 245.864 503.196, 247.429 503.500, 256 503.500 C 264.591 503.500, 266.139 503.197, 272.180 500.335 C 281.477 495.931, 287.267 490.262, 291.765 481.160 C 295.290 474.028, 295.500 473.067, 295.500 464.052 C 295.500 455.402, 295.201 453.869, 292.335 447.820 C 288.051 438.777, 282.274 432.776, 273.748 428.510 C 269.889 426.580, 266.117 425, 265.366 425 C 264.239 425, 264 419.301, 264 392.500 L 264 360 304 360 L 344 360 344 334.496 L 344 308.992 369.250 321.608 C 383.137 328.546, 394.625 334.335, 394.778 334.473 C 394.931 334.610, 394.573 335.993, 393.982 337.546 C 393.392 339.099, 392.643 343.815, 392.319 348.025 C 389.505 384.510, 423.810 414.472, 459.344 406.567 C 484.262 401.023, 501.746 381.079, 503.680 355.992 C 506.236 322.850, 478.035 294.161, 445 296.295 C 430.192 297.252, 417.887 302.932, 407.672 313.527 L 401.612 319.812 372.806 305.403 L 344 290.993 344 255.999 L 344 221.004 388.060 198.970 L 432.120 176.936 436.810 181.107 C 439.389 183.402, 444.425 186.679, 448 188.390 C 453.864 191.196, 455.429 191.500, 464 191.500 C 472.591 191.500, 474.139 191.197, 480.180 188.335 C 489.477 183.931, 495.267 178.262, 499.765 169.160 C 503.294 162.020, 503.500 161.075, 503.500 152 C 503.500 142.925, 503.294 141.980, 499.765 134.840 C 495.267 125.738, 489.477 120.069, 480.180 115.665 C 474.139 112.803, 472.591 112.500, 464 112.500 C 455.409 112.500, 453.861 112.803, 447.820 115.665 C 438.521 120.070, 432.733 125.738, 428.235 134.843 C 424.643 142.114, 424.502 142.792, 424.560 152.552 L 424.620 162.701 384.310 182.849 L 344 202.997 344 177.498 L 344 152 304 152 L 264 152 264 135.721 L 264 119.443 270.920 117.660 C 287.975 113.267, 303.115 98.833, 309.174 81.190 C 311 75.873, 311.472 72.345, 311.472 64 C 311.472 51.648, 309.231 43.762, 302.967 34.070 C 292.674 18.145, 277.125 9.198, 258.500 8.485 C 253.550 8.295, 248.375 8.358, 247 8.624 M 246.618 25.048 C 240.290 26.638, 231.284 31.968, 226.912 36.711 C 224.667 39.147, 221.405 44.147, 219.665 47.820 C 216.799 53.869, 216.500 55.402, 216.500 64.052 C 216.500 73.067, 216.710 74.028, 220.235 81.160 C 224.733 90.262, 230.523 95.931, 239.820 100.335 C 245.861 103.197, 247.409 103.500, 256 103.500 C 264.591 103.500, 266.139 103.197, 272.180 100.335 C 281.477 95.931, 287.267 90.262, 291.765 81.160 C 295.294 74.020, 295.500 73.075, 295.500 64 C 295.500 54.925, 295.294 53.980, 291.765 46.840 C 285.008 33.167, 273.003 25.144, 258.249 24.442 C 253.987 24.239, 248.753 24.512, 246.618 25.048 M 248 41.307 C 243.092 42.854, 234.721 51.522, 233.216 56.616 C 230.446 65.992, 232.399 73.467, 239.466 80.534 C 246.533 87.601, 254.008 89.554, 263.384 86.784 C 268.877 85.161, 277.161 76.877, 278.784 71.384 C 281.554 62.008, 279.601 54.533, 272.534 47.466 C 265.497 40.430, 257.307 38.374, 248 41.307 M 250.455 58.455 C 248.907 60.002, 248 62.052, 248 64 C 248 65.948, 248.907 67.998, 250.455 69.545 C 255.415 74.506, 264 70.991, 264 64 C 264 59.889, 260.111 56, 256 56 C 254.052 56, 252.002 56.907, 250.455 58.455 M 40 129.307 C 35.092 130.854, 26.721 139.522, 25.216 144.616 C 22.395 154.163, 24.767 162.807, 31.988 169.299 C 42.331 178.598, 54.762 178.306, 64.534 168.534 C 74.651 158.417, 74.651 145.583, 64.534 135.466 C 57.497 128.430, 49.307 126.374, 40 129.307 M 456.173 129.269 C 450.854 130.971, 443.418 138.324, 441.590 143.690 C 438.287 153.383, 440.137 161.205, 447.466 168.534 C 457.583 178.651, 470.417 178.651, 480.534 168.534 C 485.713 163.355, 488 158.290, 488 152 C 488 145.710, 485.713 140.645, 480.534 135.466 C 473.539 128.472, 465.252 126.363, 456.173 129.269 M 184 256 L 184 344 256 344 L 328 344 328 256 L 328 168 256 168 L 184 168 184 256 M 200 192 L 200 200 208 200 L 216 200 216 192 L 216 184 208 184 L 200 184 200 192 M 232 192 L 232 200 272 200 L 312 200 312 192 L 312 184 272 184 L 232 184 232 192 M 200 224 L 200 232 256 232 L 312 232 312 224 L 312 216 256 216 L 200 216 200 224 M 264 256 L 264 264 248 264 L 232 264 232 272 L 232 280 216 280 L 200 280 200 304 L 200 328 256 328 L 312 328 312 288 L 312 248 288 248 L 264 248 264 256 M 280 288 L 280 312 288 312 L 296 312 296 288 L 296 264 288 264 L 280 264 280 288 M 248 296 L 248 312 256 312 L 264 312 264 296 L 264 280 256 280 L 248 280 248 296 M 216 304 L 216 312 224 312 L 232 312 232 304 L 232 296 224 296 L 216 296 216 304 M 52.487 313.733 C 40.375 318.080, 32.924 324.720, 27.638 335.877 C 24.802 341.863, 24.500 343.419, 24.500 352.052 C 24.500 361.067, 24.710 362.028, 28.235 369.160 C 32.733 378.262, 38.523 383.931, 47.820 388.335 C 53.861 391.197, 55.409 391.500, 64 391.500 C 72.591 391.500, 74.139 391.197, 80.180 388.335 C 89.477 383.931, 95.267 378.262, 99.765 369.160 C 103.294 362.020, 103.500 361.075, 103.500 352 C 103.500 342.925, 103.294 341.980, 99.765 334.840 C 92.928 321.006, 81.009 313.136, 65.710 312.354 C 59.499 312.036, 56.280 312.372, 52.487 313.733 M 438.618 313.048 C 432.290 314.638, 423.284 319.968, 418.912 324.711 C 416.667 327.147, 413.405 332.147, 411.665 335.820 C 408.799 341.869, 408.500 343.402, 408.500 352.052 C 408.500 361.067, 408.710 362.028, 412.235 369.160 C 416.733 378.262, 422.523 383.931, 431.820 388.335 C 437.861 391.197, 439.409 391.500, 448 391.500 C 456.591 391.500, 458.139 391.197, 464.180 388.335 C 473.477 383.931, 479.267 378.262, 483.765 369.160 C 487.294 362.020, 487.500 361.075, 487.500 352 C 487.500 342.925, 487.294 341.980, 483.765 334.840 C 477.008 321.167, 465.003 313.144, 450.249 312.442 C 445.987 312.239, 440.753 312.512, 438.618 313.048 M 56 329.307 C 51.092 330.854, 42.721 339.522, 41.216 344.616 C 36.972 358.979, 45.991 373.216, 60.838 375.590 C 68.047 376.743, 74.789 374.346, 80.501 368.598 C 90.651 358.386, 90.664 345.596, 80.534 335.466 C 73.497 328.430, 65.307 326.374, 56 329.307 M 440 329.307 C 435.092 330.854, 426.721 339.522, 425.216 344.616 C 420.972 358.979, 429.991 373.216, 444.838 375.590 C 452.047 376.743, 458.789 374.346, 464.501 368.598 C 474.651 358.386, 474.664 345.596, 464.534 335.466 C 457.497 328.430, 449.307 326.374, 440 329.307 M 58.455 346.455 C 53.494 351.415, 57.009 360, 64 360 C 68.111 360, 72 356.111, 72 352 C 72 347.889, 68.111 344, 64 344 C 62.052 344, 60.002 344.907, 58.455 346.455 M 442.455 346.455 C 440.907 348.002, 440 350.052, 440 352 C 440 353.948, 440.907 355.998, 442.455 357.545 C 444.002 359.093, 446.052 360, 448 360 C 449.948 360, 451.998 359.093, 453.545 357.545 C 455.093 355.998, 456 353.948, 456 352 C 456 350.052, 455.093 348.002, 453.545 346.455 C 451.998 344.907, 449.948 344, 448 344 C 446.052 344, 444.002 344.907, 442.455 346.455 M 248 441.307 C 243.092 442.854, 234.721 451.522, 233.216 456.616 C 230.446 465.992, 232.399 473.467, 239.466 480.534 C 244.645 485.713, 249.710 488, 256 488 C 262.290 488, 267.355 485.713, 272.534 480.534 C 282.306 470.762, 282.598 458.331, 273.299 447.988 C 266.827 440.790, 257.477 438.320, 248 441.307" stroke="none" fill="#000000" fill-rule="evenodd"/>
</svg>