<svg xmlns="http://www.w3.org/2000/svg" width="512" height="512" viewBox="0 0 512 512" version="1.1">
	<path d="M 40.500 28.699 C 21.252 30.540, 4.097 46.520, 0.993 65.500 C -0.337 73.629, -0.337 351.371, 0.993 359.500 C 3.578 375.308, 14.820 388.178, 31.642 394.590 C 36.196 396.326, 41.519 396.462, 116.765 396.770 L 197.031 397.099 196.765 425.299 L 196.500 453.500 182.318 454 C 170.025 454.433, 167.760 454.776, 165.318 456.571 C 156.761 462.860, 157.267 474.630, 166.385 481.438 C 169.125 483.484, 169.839 483.500, 256 483.500 C 342.161 483.500, 342.875 483.484, 345.615 481.438 C 354.733 474.630, 355.239 462.860, 346.682 456.571 C 344.240 454.776, 341.975 454.433, 329.682 454 L 315.500 453.500 315.235 425.299 L 314.969 397.099 395.235 396.770 C 483.570 396.409, 477.956 396.796, 489.672 390.248 C 499.769 384.605, 509.599 370.739, 510.751 360.515 C 511.034 358.007, 511.656 355.713, 512.133 355.418 C 512.616 355.119, 513 291.340, 513 211.382 C 513 129.988, 512.623 68.115, 512.128 68.421 C 511.648 68.717, 511.026 66.927, 510.746 64.442 C 510.018 57.979, 504.820 48.104, 499.072 42.265 C 493.854 36.965, 488.374 33.484, 480.358 30.381 C 475.659 28.562, 468.442 28.497, 260 28.408 C 141.475 28.358, 42.700 28.489, 40.500 28.699 M 40.619 59.030 C 36.850 60.164, 33.081 63.706, 31.371 67.718 C 30.236 70.381, 30 90.601, 30 184.968 L 30 299 256.012 299 L 482.025 299 481.762 183.573 C 481.501 68.757, 481.489 68.132, 479.438 65.385 C 478.304 63.866, 476.134 61.696, 474.615 60.562 L 471.854 58.500 257.677 58.331 C 139.075 58.238, 42.215 58.550, 40.619 59.030 M 0.487 212.500 C 0.487 291.700, 0.605 323.952, 0.750 284.172 C 0.895 244.391, 0.895 179.591, 0.750 140.172 C 0.605 100.752, 0.487 133.300, 0.487 212.500 M 277.951 123.254 C 275.277 125.056, 268.322 136.685, 243.233 181.300 C 225.978 211.986, 211.611 238.622, 211.308 240.492 C 211.004 242.362, 211.042 245.033, 211.392 246.427 C 212.381 250.368, 217.782 255.846, 221.762 256.945 C 226.583 258.276, 233.081 256.583, 236.304 253.156 C 237.678 251.695, 252.796 225.543, 269.901 195.041 C 303.686 134.792, 303.400 135.448, 299.005 128.241 C 294.642 121.085, 284.673 118.724, 277.951 123.254 M 167.791 135.426 C 163.448 137.691, 108.788 175.038, 105.627 177.899 C 100.013 182.981, 98.672 189.477, 101.922 195.847 C 103.511 198.961, 109.195 203.267, 134.672 220.658 C 151.627 232.231, 166.578 242.269, 167.896 242.963 C 171.246 244.730, 179.109 243.770, 182.794 241.146 C 189.175 236.603, 190.559 226.168, 185.562 220.279 C 184.265 218.751, 173.971 211.208, 162.687 203.517 C 151.402 195.827, 142.351 189.241, 142.573 188.882 C 142.795 188.523, 151.938 182.107, 162.892 174.623 C 183.947 160.239, 187.531 157.015, 188.559 151.536 C 190.648 140.401, 177.622 130.297, 167.791 135.426 M 333 135.067 C 323.515 139.041, 320.335 150.491, 326.636 157.979 C 328.042 159.650, 338.154 167.140, 349.108 174.623 C 360.062 182.107, 369.205 188.523, 369.427 188.882 C 369.649 189.241, 360.598 195.827, 349.313 203.517 C 338.029 211.208, 327.735 218.751, 326.438 220.279 C 321.441 226.168, 322.825 236.603, 329.206 241.146 C 332.891 243.770, 340.754 244.730, 344.104 242.963 C 345.422 242.269, 360.373 232.231, 377.328 220.658 C 402.805 203.267, 408.489 198.961, 410.078 195.847 C 413.102 189.919, 412.265 184.080, 407.683 179.151 C 406.483 177.859, 391.612 167.336, 374.637 155.766 C 342.059 133.560, 339.562 132.318, 333 135.067 M 30.174 342.931 C 30.528 358.068, 31.088 359.736, 37.385 364.438 L 40.147 366.500 256 366.500 L 471.853 366.500 474.615 364.438 C 480.912 359.736, 481.472 358.068, 481.826 342.931 L 482.151 329 256 329 L 29.849 329 30.174 342.931 M 226.234 425.250 L 226.500 453.500 256 453.500 L 285.500 453.500 285.766 425.250 L 286.031 397 256 397 L 225.969 397 226.234 425.250" stroke="none" fill="#000000" fill-rule="evenodd"/>
</svg>